<?xml version="1.0" encoding="UTF-8"?>
<svg id="_Слой_1" data-name="Слой 1" xmlns="http://www.w3.org/2000/svg" viewBox="0 0 11.42 11.86">
  <defs>
    <style>
      .cls-1 {
        fill: #e94a49;
      }

      .cls-2 {
        fill: #fffef8;
      }

      .cls-3 {
        fill: #19516e;
      }

      .cls-4 {
        fill: #12384c;
      }
    </style>
  </defs>
  <path class="cls-1" d="M11.23,10.71l-1.89-1.92c.83-.92,1.33-2.14,1.34-3.47C10.7,2.4,8.32.02,5.37,0S.02,2.33,0,5.25s2.36,5.3,5.31,5.32c1.09,0,2.1-.31,2.95-.86l1.82,1.9c.16.16.37.25.58.25.2,0,.4-.07.56-.22.27-.25.28-.68.02-.94ZM5.25,9.6c-2.38-.03-4.29-1.98-4.25-4.36.03-2.38,1.98-4.28,4.36-4.25,2.38.03,4.29,1.98,4.25,4.36-.03,2.38-1.98,4.28-4.36,4.25Z"/>
  <ellipse class="cls-3" cx="5.31" cy="5.24" rx="3.3" ry="3.33" transform="translate(0 10.48) rotate(-89.27)"/>
  <g>
    <path class="cls-4" d="M7.83,4.82l-.58.5.55.63c.05.06.05.14,0,.19l-.05.05s-.13.05-.17,0l-.64-.66h-.17s-.01.06-.02.09c-.02.09-.06.18-.09.26l.49.41s.05.1.01.14l-.05.07s-.1.05-.15.02l-.48-.37c-.09.11-.18.19-.24.24-.16.14-.32.23-.46.29-.02.01-.05.02-.08.02-.09,0-.17-.06-.18-.15-.02-.12.04-.23.15-.28.04-.02.08-.04.11-.06.07-.04.23-.15.36-.34h0c.24-.38.15-.8.14-.83-.01-.05-.12-.46-.5-.67-.05-.03-.1-.05-.14-.06-.09-.03-.15-.12-.14-.22v-.08c.03-.13.16-.21.29-.17.03.01.07.03.1.04.25.12.4.3.52.45.03.04.07.09.11.14l.4-.35s.11-.03.14,0l.06.06s.04.11,0,.15l-.44.41s.03.08.05.13c.02.05.03.12.05.2h.15s.65-.56.65-.56c.09-.08.22-.07.29.02.03.04.05.09.05.14,0,.06-.02.12-.07.16Z"/>
    <path class="cls-4" d="M6.91,7.36s-.06.03-.1.03c-.04,0-.09-.02-.12-.06l-.29-.33-.2.29c-.05.07-.14.08-.2.02-.07-.07-.08-.18-.01-.26l.39-.48.19.2.36.37c.06.06.05.17-.02.22Z"/>
    <path class="cls-4" d="M5.98,3.16s.06-.03.1-.03c.04,0,.09.02.12.06l.29.33.2-.29c.05-.07.14-.08.2-.02.07.07.08.18.01.26l-.39.48-.19-.2-.36-.37c-.06-.06-.05-.17.02-.22Z"/>
  </g>
  <path class="cls-2" d="M5.27,2.43l-.02,2.76-2.72-.02c.03-1.53,1.24-2.76,2.69-2.75.02,0,.03,0,.05,0Z"/>
  <path class="cls-4" d="M5.25,5.52l-.02,2.44s-.08,0-.12,0c-1.35,0-2.44-1.08-2.57-2.46l2.7.02Z"/>
</svg>